{
    "asset" : {
        "generator" : "Khronos glTF Blender I/O v3.3.32",
        "version" : "2.0"
    },
    "extensionsUsed" : [
        "KHR_materials_specular",
        "KHR_materials_ior"
    ],
    "scene" : 0,
    "scenes" : [
        {
            "name" : "Scene",
            "nodes" : [
                0,
                1,
                2,
                3
            ]
        }
    ],
    "nodes" : [
        {
            "mesh" : 0,
            "name" : "Cylinder010.002",
            "rotation" : [
                0,
                0.8235558271408081,
                0,
                0.5672352313995361
            ],
            "scale" : [
                0.03173930197954178,
                0.03173930570483208,
                0.03173930197954178
            ],
            "translation" : [
                0.4158174395561218,
                1.8127611875534058,
                -1.40951406955719
            ]
        },
        {
            "mesh" : 1,
            "name" : "ChamferCyl001.001",
            "rotation" : [
                0,
                -0.7192848324775696,
                0,
                0.6947153806686401
            ],
            "scale" : [
                0.03108447976410389,
                0.031084485352039337,
                0.03108447976410389
            ],
            "translation" : [
                0.4158174395561218,
                1.690554141998291,
                -1.40951406955719
            ]
        },
        {
            "mesh" : 2,
            "name" : "Ninja Coffee Cat_Coffee Break1",
            "rotation" : [
                0.5,
                0.5,
                -0.5,
                0.5
            ],
            "scale" : [
                0.7561586499214172,
                0.7561586499214172,
                1.792023777961731
            ],
            "translation" : [
                0.5360482931137085,
                1.7633843421936035,
                -1.407796859741211
            ]
        },
        {
            "mesh" : 3,
            "name" : "Ninja Coffee Cat_Coffee Break1.001",
            "rotation" : [
                0.5498347878456116,
                -0.44461411237716675,
                0.44461414217948914,
                0.5498347878456116
            ],
            "scale" : [
                0.756158709526062,
                0.756158709526062,
                1.792023777961731
            ],
            "translation" : [
                0.29788947105407715,
                1.7633843421936035,
                -1.386032223701477
            ]
        }
    ],
    "animations" : [
        {
            "channels" : [
                {
                    "sampler" : 0,
                    "target" : {
                        "node" : 0,
                        "path" : "translation"
                    }
                },
                {
                    "sampler" : 1,
                    "target" : {
                        "node" : 0,
                        "path" : "rotation"
                    }
                },
                {
                    "sampler" : 2,
                    "target" : {
                        "node" : 0,
                        "path" : "scale"
                    }
                }
            ],
            "name" : "Cylinder010.002",
            "samplers" : [
                {
                    "input" : 15,
                    "interpolation" : "LINEAR",
                    "output" : 16
                },
                {
                    "input" : 15,
                    "interpolation" : "LINEAR",
                    "output" : 17
                },
                {
                    "input" : 15,
                    "interpolation" : "LINEAR",
                    "output" : 18
                }
            ]
        },
        {
            "channels" : [
                {
                    "sampler" : 0,
                    "target" : {
                        "node" : 1,
                        "path" : "translation"
                    }
                },
                {
                    "sampler" : 1,
                    "target" : {
                        "node" : 1,
                        "path" : "rotation"
                    }
                },
                {
                    "sampler" : 2,
                    "target" : {
                        "node" : 1,
                        "path" : "scale"
                    }
                }
            ],
            "name" : "ChamferCyl001.001",
            "samplers" : [
                {
                    "input" : 15,
                    "interpolation" : "LINEAR",
                    "output" : 19
                },
                {
                    "input" : 15,
                    "interpolation" : "LINEAR",
                    "output" : 20
                },
                {
                    "input" : 15,
                    "interpolation" : "LINEAR",
                    "output" : 21
                }
            ]
        },
        {
            "channels" : [
                {
                    "sampler" : 0,
                    "target" : {
                        "node" : 2,
                        "path" : "translation"
                    }
                },
                {
                    "sampler" : 1,
                    "target" : {
                        "node" : 2,
                        "path" : "rotation"
                    }
                },
                {
                    "sampler" : 2,
                    "target" : {
                        "node" : 2,
                        "path" : "scale"
                    }
                }
            ],
            "name" : "Ninja Coffee Cat_Coffee Break1",
            "samplers" : [
                {
                    "input" : 15,
                    "interpolation" : "LINEAR",
                    "output" : 22
                },
                {
                    "input" : 15,
                    "interpolation" : "LINEAR",
                    "output" : 23
                },
                {
                    "input" : 15,
                    "interpolation" : "LINEAR",
                    "output" : 24
                }
            ]
        },
        {
            "channels" : [
                {
                    "sampler" : 0,
                    "target" : {
                        "node" : 3,
                        "path" : "translation"
                    }
                },
                {
                    "sampler" : 1,
                    "target" : {
                        "node" : 3,
                        "path" : "rotation"
                    }
                },
                {
                    "sampler" : 2,
                    "target" : {
                        "node" : 3,
                        "path" : "scale"
                    }
                }
            ],
            "name" : "Ninja Coffee Cat_Coffee Break1.001",
            "samplers" : [
                {
                    "input" : 15,
                    "interpolation" : "LINEAR",
                    "output" : 25
                },
                {
                    "input" : 15,
                    "interpolation" : "LINEAR",
                    "output" : 26
                },
                {
                    "input" : 15,
                    "interpolation" : "LINEAR",
                    "output" : 27
                }
            ]
        }
    ],
    "materials" : [
        {
            "doubleSided" : true,
            "extensions" : {
                "KHR_materials_specular" : {
                    "specularColorFactor" : [
                        2.371357614441398,
                        2.371357614441398,
                        2.371357614441398
                    ]
                },
                "KHR_materials_ior" : {
                    "ior" : 1.4500000476837158
                }
            },
            "name" : "cremed",
            "pbrMetallicRoughness" : {
                "baseColorFactor" : [
                    0.46593424677848816,
                    0.30637064576148987,
                    0.13449302315711975,
                    1
                ],
                "metallicFactor" : 0,
                "roughnessFactor" : 0.5527864098548889
            }
        },
        {
            "doubleSided" : true,
            "extensions" : {
                "KHR_materials_specular" : {
                    "specularColorFactor" : [
                        2.371357614441398,
                        2.371357614441398,
                        2.371357614441398
                    ]
                },
                "KHR_materials_ior" : {
                    "ior" : 1.4500000476837158
                }
            },
            "name" : "01 - Default.001",
            "pbrMetallicRoughness" : {
                "baseColorFactor" : [
                    0.9450981020927429,
                    0.9450981020927429,
                    0.9450981020927429,
                    1
                ],
                "metallicFactor" : 0,
                "roughnessFactor" : 0.5527864098548889
            }
        },
        {
            "alphaMode" : "BLEND",
            "doubleSided" : true,
            "name" : "Ninja Coffee Cat_Coffee Break1",
            "pbrMetallicRoughness" : {
                "baseColorTexture" : {
                    "index" : 0
                },
                "metallicFactor" : 0,
                "roughnessFactor" : 0.5
            }
        },
        {
            "alphaMode" : "BLEND",
            "doubleSided" : true,
            "name" : "Ninja Coffee Cat_Coffee Break1.001",
            "pbrMetallicRoughness" : {
                "baseColorTexture" : {
                    "index" : 1
                },
                "metallicFactor" : 0,
                "roughnessFactor" : 0.5
            }
        }
    ],
    "meshes" : [
        {
            "name" : "Mesh.001",
            "primitives" : [
                {
                    "attributes" : {
                        "POSITION" : 0,
                        "NORMAL" : 1,
                        "TEXCOORD_0" : 2
                    },
                    "indices" : 3,
                    "material" : 0
                }
            ]
        },
        {
            "name" : "Mesh.016",
            "primitives" : [
                {
                    "attributes" : {
                        "POSITION" : 4,
                        "NORMAL" : 5,
                        "TEXCOORD_0" : 6
                    },
                    "indices" : 7,
                    "material" : 1
                }
            ]
        },
        {
            "name" : "Ninja Coffee Cat_Coffee Break1",
            "primitives" : [
                {
                    "attributes" : {
                        "POSITION" : 8,
                        "NORMAL" : 9,
                        "TEXCOORD_0" : 10
                    },
                    "indices" : 11,
                    "material" : 2
                }
            ]
        },
        {
            "name" : "Ninja Coffee Cat_Coffee Break1.001",
            "primitives" : [
                {
                    "attributes" : {
                        "POSITION" : 12,
                        "NORMAL" : 13,
                        "TEXCOORD_0" : 14
                    },
                    "indices" : 11,
                    "material" : 3
                }
            ]
        }
    ],
    "textures" : [
        {
            "sampler" : 0,
            "source" : 0
        },
        {
            "sampler" : 0,
            "source" : 1
        }
    ],
    "images" : [
        {
            "bufferView" : 12,
            "mimeType" : "image/png",
            "name" : "Ninja Coffee Cat_Coffee Break_Alpha"
        },
        {
            "bufferView" : 16,
            "mimeType" : "image/png",
            "name" : "Ninja Coffee Cat_Coffee Break_Alpha3"
        }
    ],
    "accessors" : [
        {
            "bufferView" : 0,
            "componentType" : 5126,
            "count" : 418,
            "max" : [
                2,
                0.05000000074505806,
                2
            ],
            "min" : [
                -2,
                0,
                -2
            ],
            "type" : "VEC3"
        },
        {
            "bufferView" : 1,
            "componentType" : 5126,
            "count" : 418,
            "type" : "VEC3"
        },
        {
            "bufferView" : 2,
            "componentType" : 5126,
            "count" : 418,
            "type" : "VEC2"
        },
        {
            "bufferView" : 3,
            "componentType" : 5123,
            "count" : 2112,
            "type" : "SCALAR"
        },
        {
            "bufferView" : 4,
            "componentType" : 5126,
            "count" : 2356,
            "max" : [
                2.25,
                4.5,
                2.250000238418579
            ],
            "min" : [
                -3.775709390640259,
                0,
                -2.25
            ],
            "type" : "VEC3"
        },
        {
            "bufferView" : 5,
            "componentType" : 5126,
            "count" : 2356,
            "type" : "VEC3"
        },
        {
            "bufferView" : 6,
            "componentType" : 5126,
            "count" : 2356,
            "type" : "VEC2"
        },
        {
            "bufferView" : 7,
            "componentType" : 5123,
            "count" : 5478,
            "type" : "SCALAR"
        },
        {
            "bufferView" : 8,
            "componentType" : 5126,
            "count" : 144,
            "max" : [
                0.082872673869133,
                -0.06610240042209625,
                0.03355313092470169
            ],
            "min" : [
                -0.08287268877029419,
                -0.12256397306919098,
                -0.03355314955115318
            ],
            "type" : "VEC3"
        },
        {
            "bufferView" : 9,
            "componentType" : 5126,
            "count" : 144,
            "type" : "VEC3"
        },
        {
            "bufferView" : 10,
            "componentType" : 5126,
            "count" : 144,
            "type" : "VEC2"
        },
        {
            "bufferView" : 11,
            "componentType" : 5123,
            "count" : 726,
            "type" : "SCALAR"
        },
        {
            "bufferView" : 13,
            "componentType" : 5126,
            "count" : 144,
            "max" : [
                0.08287268131971359,
                -0.06610099971294403,
                0.03355313837528229
            ],
            "min" : [
                -0.082872673869133,
                -0.12273445725440979,
                -0.03355313092470169
            ],
            "type" : "VEC3"
        },
        {
            "bufferView" : 14,
            "componentType" : 5126,
            "count" : 144,
            "type" : "VEC3"
        },
        {
            "bufferView" : 15,
            "componentType" : 5126,
            "count" : 144,
            "type" : "VEC2"
        },
        {
            "bufferView" : 17,
            "componentType" : 5126,
            "count" : 600,
            "max" : [
                25
            ],
            "min" : [
                0.041666666666666664
            ],
            "type" : "SCALAR"
        },
        {
            "bufferView" : 18,
            "componentType" : 5126,
            "count" : 600,
            "type" : "VEC3"
        },
        {
            "bufferView" : 19,
            "componentType" : 5126,
            "count" : 600,
            "type" : "VEC4"
        },
        {
            "bufferView" : 20,
            "componentType" : 5126,
            "count" : 600,
            "type" : "VEC3"
        },
        {
            "bufferView" : 21,
            "componentType" : 5126,
            "count" : 600,
            "type" : "VEC3"
        },
        {
            "bufferView" : 22,
            "componentType" : 5126,
            "count" : 600,
            "type" : "VEC4"
        },
        {
            "bufferView" : 23,
            "componentType" : 5126,
            "count" : 600,
            "type" : "VEC3"
        },
        {
            "bufferView" : 24,
            "componentType" : 5126,
            "count" : 600,
            "type" : "VEC3"
        },
        {
            "bufferView" : 25,
            "componentType" : 5126,
            "count" : 600,
            "type" : "VEC4"
        },
        {
            "bufferView" : 26,
            "componentType" : 5126,
            "count" : 600,
            "type" : "VEC3"
        },
        {
            "bufferView" : 27,
            "componentType" : 5126,
            "count" : 600,
            "type" : "VEC3"
        },
        {
            "bufferView" : 28,
            "componentType" : 5126,
            "count" : 600,
            "type" : "VEC4"
        },
        {
            "bufferView" : 29,
            "componentType" : 5126,
            "count" : 600,
            "type" : "VEC3"
        }
    ],
    "bufferViews" : [
        {
            "buffer" : 0,
            "byteLength" : 5016,
            "byteOffset" : 0,
            "target" : 34962
        },
        {
            "buffer" : 0,
            "byteLength" : 5016,
            "byteOffset" : 5016,
            "target" : 34962
        },
        {
            "buffer" : 0,
            "byteLength" : 3344,
            "byteOffset" : 10032,
            "target" : 34962
        },
        {
            "buffer" : 0,
            "byteLength" : 4224,
            "byteOffset" : 13376,
            "target" : 34963
        },
        {
            "buffer" : 0,
            "byteLength" : 28272,
            "byteOffset" : 17600,
            "target" : 34962
        },
        {
            "buffer" : 0,
            "byteLength" : 28272,
            "byteOffset" : 45872,
            "target" : 34962
        },
        {
            "buffer" : 0,
            "byteLength" : 18848,
            "byteOffset" : 74144,
            "target" : 34962
        },
        {
            "buffer" : 0,
            "byteLength" : 10956,
            "byteOffset" : 92992,
            "target" : 34963
        },
        {
            "buffer" : 0,
            "byteLength" : 1728,
            "byteOffset" : 103948,
            "target" : 34962
        },
        {
            "buffer" : 0,
            "byteLength" : 1728,
            "byteOffset" : 105676,
            "target" : 34962
        },
        {
            "buffer" : 0,
            "byteLength" : 1152,
            "byteOffset" : 107404,
            "target" : 34962
        },
        {
            "buffer" : 0,
            "byteLength" : 1452,
            "byteOffset" : 108556,
            "target" : 34963
        },
        {
            "buffer" : 0,
            "byteLength" : 97602,
            "byteOffset" : 110008
        },
        {
            "buffer" : 0,
            "byteLength" : 1728,
            "byteOffset" : 207612,
            "target" : 34962
        },
        {
            "buffer" : 0,
            "byteLength" : 1728,
            "byteOffset" : 209340,
            "target" : 34962
        },
        {
            "buffer" : 0,
            "byteLength" : 1152,
            "byteOffset" : 211068,
            "target" : 34962
        },
        {
            "buffer" : 0,
            "byteLength" : 399656,
            "byteOffset" : 212220
        },
        {
            "buffer" : 0,
            "byteLength" : 2400,
            "byteOffset" : 611876
        },
        {
            "buffer" : 0,
            "byteLength" : 7200,
            "byteOffset" : 614276
        },
        {
            "buffer" : 0,
            "byteLength" : 9600,
            "byteOffset" : 621476
        },
        {
            "buffer" : 0,
            "byteLength" : 7200,
            "byteOffset" : 631076
        },
        {
            "buffer" : 0,
            "byteLength" : 7200,
            "byteOffset" : 638276
        },
        {
            "buffer" : 0,
            "byteLength" : 9600,
            "byteOffset" : 645476
        },
        {
            "buffer" : 0,
            "byteLength" : 7200,
            "byteOffset" : 655076
        },
        {
            "buffer" : 0,
            "byteLength" : 7200,
            "byteOffset" : 662276
        },
        {
            "buffer" : 0,
            "byteLength" : 9600,
            "byteOffset" : 669476
        },
        {
            "buffer" : 0,
            "byteLength" : 7200,
            "byteOffset" : 679076
        },
        {
            "buffer" : 0,
            "byteLength" : 7200,
            "byteOffset" : 686276
        },
        {
            "buffer" : 0,
            "byteLength" : 9600,
            "byteOffset" : 693476
        },
        {
            "buffer" : 0,
            "byteLength" : 7200,
            "byteOffset" : 703076
        }
    ],
    "samplers" : [
        {
            "magFilter" : 9729,
            "minFilter" : 9987,
            "wrapS" : 33071,
            "wrapT" : 33071
        }
    ],
    "buffers" : [
        {
            "byteLength" : 710276,
            "uri" : "data:application/octet-stream;base64,"
        }
    ]
}
